<svg width="12" height="12" viewBox="0 0 60 60" fill="none" xmlns="http://www.w3.org/2000/svg">
<path d="M10.1856 7.48316C10.3312 4.90793 10.9464 3.78808 12.7104 2.88881C14.6086 1.9209 17.6023 2.37134 21.125 4.15518C22.6423 4.92388 22.7968 4.93953 25.4559 4.59861C28.9904 4.14528 33.5406 4.14688 36.8029 4.60276C39.2699 4.94751 39.4319 4.93028 40.9529 4.15998C45.9531 1.62785 49.9009 1.79353 51.3304 4.59541C52.0439 5.99396 52.1764 9.62293 51.6231 12.616C51.3164 14.2754 51.3489 14.4826 52.0879 15.5715C57.2871 23.2333 53.5409 35.6527 44.6316 40.2874C43.9499 40.6422 43.3754 40.8617 42.9071 41.0404C41.4694 41.5894 41.0329 41.7562 41.5614 44.2832C41.8159 45.4987 42.1224 48.5207 42.2429 50.9992C42.4606 55.4792 42.4574 55.5104 41.6716 56.4244C40.6021 57.6677 39.0606 57.6887 38.0161 56.4742C37.3349 55.6822 37.2684 55.3082 37.2684 52.2524C37.2684 47.7367 36.7734 44.7352 35.6039 42.1632C34.2131 39.1024 35.2441 37.9612 38.4246 37.2772C42.8454 36.3262 46.2981 33.5979 48.2226 29.5352C50.0524 25.6732 50.3281 20.3362 47.0201 17.0904C46.0794 15.9724 46.0139 14.9598 46.6856 11.9064C46.9366 10.7652 47.1471 9.29286 47.1534 8.63428C47.1629 7.59423 47.0681 7.43718 46.4294 7.43718C46.0251 7.43718 44.4806 8.02521 42.9976 8.74378L40.6306 9.89103C40.4154 9.99531 40.1746 10.0354 39.9371 10.0082C33.9184 9.31731 28.1994 9.30663 22.1512 10.0109C21.9128 10.0386 21.671 9.99851 21.455 9.89371L19.0893 8.74571C17.6061 8.02583 16.0617 7.43718 15.6576 7.43718C14.7232 7.43718 14.7091 8.12703 15.5608 12.2256C16.0811 14.7287 16.4312 15.2865 14.9272 17.288C12.6728 20.2881 12.1096 24.0135 13.3186 27.9277C14.8422 32.8602 18.5734 36.1924 23.819 37.3042C26.9811 37.9744 27.8076 38.8489 26.6001 42.4749C25.6496 45.3284 25.0486 46.0639 23.6673 46.0639C21.8088 46.0639 20.6445 44.4539 21.2852 42.7692C21.5674 42.0267 21.4835 41.9474 19.7424 41.3124C14.4276 39.3747 10.3625 35.0314 8.50394 29.3044C7.06742 24.8783 7.69949 19.1171 10.004 15.635C10.7887 14.4494 10.8008 14.3488 10.4346 12.0791C10.2275 10.7942 10.1154 8.72623 10.1856 7.48316Z" fill="#F8F5F5"/>
<path d="M8.33038 39.8635C7.56451 38.7147 6.01233 38.4042 4.86351 39.1702C3.71471 39.936 3.40426 41.4882 4.17013 42.637C4.73556 43.4852 5.41198 44.182 5.98641 44.7562C6.09231 44.8622 6.19521 44.9645 6.29568 45.0642C6.77686 45.5422 7.20171 45.9642 7.62841 46.4652C8.57218 47.573 9.51371 49.065 10.0488 51.7405C10.2872 52.9322 11.1438 53.5742 11.6184 53.8547C12.1332 54.1587 12.6956 54.338 13.1584 54.4547C14.1052 54.6935 15.2545 54.8175 16.3453 54.8897C17.5427 54.9692 18.8401 54.995 20.0003 55.002C20.0011 56.3817 21.1201 57.5002 22.5003 57.5002C23.881 57.5002 25.0003 56.381 25.0003 55.0002V52.5002C25.0003 51.1195 23.881 50.0002 22.5003 50.0002C22.2646 50.0002 22.0096 50.001 21.7395 50.002C20.2724 50.0065 18.36 50.0122 16.6758 49.9007C15.8636 49.847 15.1959 49.7707 14.7063 49.6775C13.9524 46.7177 12.7344 44.7485 11.4346 43.2227C10.8601 42.5485 10.2651 41.9585 9.78121 41.4785C9.69061 41.3887 9.60391 41.3027 9.52193 41.2207C8.96356 40.6625 8.59831 40.2655 8.33038 39.8635Z" fill="#F8F5F5"/>
</svg>
