<svg width="16" height="16" viewBox="0 0 60 60" fill="none" xmlns="http://www.w3.org/2000/svg">
<path d="M11.0647 51.0019L6.85156 3.75H53.1453L48.9266 50.9944L29.9703 56.25L11.0647 51.0019Z" fill="#E44F26"/>
<path d="M30 52.2327L45.3188 47.9858L48.9225 7.61328H30V52.2327Z" fill="#F1662A"/>
<path d="M30 25.1362H22.3312L21.8025 19.2019H30V13.4062H29.9794H15.4688L15.6075 14.9625L17.0306 30.9319H30V25.1362Z" fill="#EBEBEB"/>
<path d="M29.9997 40.1883L29.9734 40.1958L23.5197 38.4539L23.1072 33.832H19.9703H17.2891L18.1009 42.9295L29.9734 46.2258L29.9997 46.2183V40.1883Z" fill="#EBEBEB"/>
<path d="M29.9805 25.1367V30.9323H37.1167L36.4455 38.4492L29.9805 40.193V46.223L41.8623 42.9286L41.9486 41.9498L43.3098 26.693L43.4523 25.1367H41.8905H29.9805Z" fill="white"/>
<path d="M29.9805 13.4062V17.0063V19.1887V19.2019H43.9605H43.9792L44.0955 17.9006L44.3598 14.9625L44.4986 13.4062H29.9805Z" fill="white"/>
</svg>
