<svg width="18" height="18" viewBox="0 0 60 60" fill="none" xmlns="http://www.w3.org/2000/svg">
<path d="M56.25 3.75H3.75V56.25H56.25V3.75Z" fill="#F5DE19"/>
<path d="M39.0186 44.7655C39.4659 45.6741 40.1609 46.4378 41.0234 46.9686C41.8859 47.4994 42.8809 47.7756 43.8936 47.7655C45.9373 47.7655 47.2442 46.7436 47.2442 45.328C47.2442 43.6405 45.9017 43.0368 43.6517 42.0524L42.418 41.5236C38.8555 40.0068 36.493 38.1074 36.493 34.0911C36.493 30.3918 39.3055 27.5736 43.7173 27.5736C45.1455 27.4705 46.5725 27.7901 47.8202 28.4927C49.0679 29.1952 50.0812 30.2496 50.7336 31.5243L46.8767 33.9899C46.6255 33.3579 46.1881 32.8171 45.6225 32.4394C45.0569 32.0617 44.3899 31.8648 43.7098 31.8749C43.4131 31.8452 43.1135 31.8776 42.83 31.9701C42.5466 32.0626 42.2855 32.2131 42.0634 32.4121C41.8413 32.6111 41.6631 32.8541 41.5401 33.1258C41.4172 33.3974 41.3522 33.6917 41.3492 33.9899C41.3492 35.4693 42.2661 36.0693 44.383 36.9899L45.6167 37.5186C49.8092 39.3168 52.1792 41.1486 52.1792 45.268C52.1792 49.7099 48.6898 52.1436 44.0042 52.1436C42.1785 52.26 40.3582 51.8455 38.7629 50.9501C37.1676 50.0548 35.8654 48.717 35.0136 47.098L39.0186 44.7655ZM21.5905 45.193C22.3648 46.5674 23.0698 47.7299 24.7648 47.7299C26.3848 47.7299 27.4086 47.0961 27.4086 44.6305V27.8549H32.3417V44.6961C32.3417 49.8036 29.3417 52.1286 24.9748 52.1286C23.4313 52.213 21.8983 51.8283 20.5774 51.0252C19.2565 50.222 18.2096 49.0379 17.5742 47.6286L21.5905 45.193Z" fill="black"/>
</svg>
