<svg width="30" height="30" viewBox="0 0 60 60" fill="none" xmlns="http://www.w3.org/2000/svg">
<g clip-path="url(#clip0_277_5)">
<path d="M30 0C13.4325 0 0 13.4325 0 30C0 46.5675 13.4325 60 30 60C46.5675 60 60 46.5675 60 30C60 13.4325 46.5675 0 30 0ZM17.405 19.2C19.29 19.2 20.7475 20.5725 20.9175 22.2C21.09 23.6575 20.49 24.9425 18.8625 25.715C18.005 26.1425 17.6625 26.145 17.49 25.8875C17.405 25.715 17.49 25.545 17.6625 25.3725C19.205 24.0875 19.205 23.0575 19.0325 21.6025C18.9475 20.6575 18.2625 20.0575 17.575 20.0575C14.575 20.0575 10.29 26.7425 10.89 31.63C11.1475 33.515 12.2625 35.745 14.6625 35.745C15.4325 35.745 16.2875 35.4875 17.0625 35.145C18.3125 34.485 19.06 33.97 19.805 33.145C19.6225 30.9325 21.565 28.03 24.4325 28.03C25.72 28.03 26.7475 28.5425 26.8325 29.4875C27.0025 30.7725 25.89 30.9425 25.5475 30.9425C25.205 30.9425 24.6025 30.8575 24.6025 30.5175C24.5175 30.1725 25.375 30.3425 25.29 29.5725C25.2025 29.0575 24.69 28.8875 24.175 28.8875C22.375 28.8875 21.3475 31.3725 21.6025 32.915C21.69 33.6025 22.0325 34.2875 22.72 34.2875C23.2325 34.2875 24.005 33.5125 24.2625 32.4C24.4325 31.63 25.12 31.115 25.72 31.115C25.975 31.115 26.145 31.2 26.2325 31.5425V31.8875C26.1475 32.23 25.89 33.2575 25.9775 33.515C25.9775 33.6875 26.0625 33.9425 26.4025 33.9425C26.6325 33.9425 27.4925 33.4925 28.345 32.795C28.6375 31.32 28.9775 29.55 28.9775 29.4025C29.0625 28.8025 29.32 28.2025 30.52 28.2025C30.7775 28.2025 30.9475 28.2875 31.0325 28.63V28.975L30.6925 30.5175C31.805 29.06 33.435 28.0325 34.4625 28.0325C34.8925 28.0325 35.235 28.2875 35.235 28.7175C35.235 28.975 35.235 29.4025 35.0625 29.8325C34.72 30.775 34.29 32.2325 34.0325 33.5175C34.0325 33.86 34.12 34.2025 34.55 34.2025C34.9775 34.2025 36.2625 33.6875 37.29 32.3175L37.3075 32.3075C37.3025 32.1375 37.29 31.9725 37.29 31.8025C37.29 30.775 37.3775 29.9175 37.55 29.3175C37.72 28.6325 38.5775 28.0325 39.0925 28.0325C39.35 28.0325 39.605 28.205 39.605 28.46C39.605 28.5475 39.605 28.7175 39.52 28.8025C39.1775 29.9175 38.92 30.945 38.92 31.975C38.92 32.575 39.005 33.43 39.175 33.945C39.175 34.03 39.2625 34.1175 39.35 34.1175C39.52 34.1175 40.72 33.005 41.575 31.5475C40.805 31.0325 40.375 30.175 40.375 29.1475C40.375 27.3475 41.49 26.405 42.52 26.405C43.3775 26.405 44.0625 27.005 44.0625 28.205C44.0625 28.975 43.805 29.83 43.3775 30.605H43.6325C43.9044 30.6138 44.1752 30.565 44.4268 30.4615C44.6785 30.3581 44.9054 30.2025 45.0925 30.005C45.1712 29.8751 45.2882 29.7729 45.4275 29.7125C46.265 28.65 47.5025 27.8625 48.9525 27.8625C50.1525 27.8625 51.2625 28.375 51.35 29.3175C51.52 30.605 50.405 30.8625 50.0625 30.8625L50.0575 30.8575C49.7125 30.8575 49.115 30.77 49.115 30.4275C49.115 30.085 49.8875 30.2575 49.8 29.4875C49.715 28.9725 49.2 28.8 48.685 28.8C46.97 28.8 45.86 31.0275 46.115 32.8275C46.2 33.515 46.5425 34.285 47.2275 34.285C47.7425 34.285 48.515 33.515 48.8575 32.4C49.0275 31.715 49.715 31.115 50.315 31.115C50.5725 31.115 50.74 31.2 50.8275 31.5425C50.8275 31.715 50.8275 32.0575 50.485 33.1725C50.06 33.9425 50.0575 34.3725 50.1425 34.715C50.2275 35.4 50.57 35.915 50.915 36.1725C51 36.2575 51.085 36.4275 51.085 36.4275C51.085 36.6 51 36.7725 50.7425 36.7725C50.6575 36.7725 50.5725 36.7725 50.485 36.685C49.2 36.1725 48.685 35.315 48.5125 34.4575C48 35.0575 47.4 35.4 46.7125 35.4C45.6 35.4 44.4875 34.3725 44.3125 33.085C44.2634 32.537 44.3272 31.9848 44.5 31.4625C43.9925 31.7875 43.445 31.97 42.9425 31.97H42.5175C41.4 33.6 40.2 34.715 39.3425 35.2275C39.0513 35.3825 38.7295 35.4713 38.4 35.4875C38.23 35.4875 37.9725 35.4 37.8875 35.2275C37.65 34.8475 37.4975 34.2475 37.405 33.56C36.2025 34.8775 34.5425 35.5725 33.7725 35.5725C32.915 35.5725 32.4025 35.0575 32.3175 34.1975V33.2575C32.5725 31.3725 33.26 30.2575 33.26 29.915C33.2577 29.8698 33.2388 29.827 33.207 29.7947C33.1752 29.7625 33.1327 29.743 33.0875 29.74C32.4875 29.74 30.5175 31.8 30.1725 33.1725L29.915 34.285C29.745 35.0575 28.9725 35.5725 28.46 35.5725C28.2025 35.5725 28.03 35.485 27.945 35.1425V34.8L28.06 34.2175C26.9725 34.9925 25.885 35.4875 25.3725 35.4875C24.6025 35.4875 24.1725 35.0575 24.0875 34.4575C23.5725 35.1425 22.975 35.4875 22.2025 35.4875C21.3225 35.4875 20.4625 34.8875 20.0475 34.005C19.4375 34.6925 18.74 35.3875 17.9175 35.915C16.7175 36.6875 15.3475 37.2875 13.7175 37.2875C12.2625 37.2875 10.975 36.515 10.29 35.83C9.26 34.8875 8.6625 33.43 8.575 32.0575C8.0625 27.8575 10.6325 22.4575 14.575 20.0575C15.52 19.545 16.4625 19.2 17.405 19.2ZM41.83 27.4275C41.57 27.4275 41.4 27.8575 41.4 28.285C41.4 28.97 41.7425 29.7425 42.1725 30.1725C42.3401 29.7048 42.4264 29.2118 42.4275 28.715C42.4275 27.8575 42.0875 27.4275 41.83 27.4275Z" fill="black"/>
</g>
<defs>
<clipPath id="clip0_277_5">
<rect width="60" height="60" fill="white"/>
</clipPath>
</defs>
</svg>
