<svg width="30" height="30" viewBox="0 0 60 61" fill="none" xmlns="http://www.w3.org/2000/svg">
<path d="M11.0667 51.5019L6.85547 4.25H53.1455L48.9286 51.4944L29.9723 56.75L11.0667 51.5019Z" fill="#1572B6"/>
<path d="M30 52.7336L45.3188 48.4868L48.9225 8.11426H30V52.7336Z" fill="#33A9DC"/>
<path d="M30 25.2332H37.6688L38.1975 19.2988H30V13.5032H30.0206H44.5312L44.3925 15.0575L42.9694 31.0288H30V25.2332Z" fill="white"/>
<path d="M30.0348 40.2837L30.0086 40.2912L23.5548 38.5474L23.1423 33.9255H20.0055H17.3242L18.1361 43.0249L30.0067 46.3212L30.0348 46.3137V40.2837Z" fill="#EBEBEB"/>
<path d="M37.1763 30.7832L36.4788 38.5438L30.0156 40.2876V46.3176L41.8956 43.0251L41.9838 42.0463L42.9906 30.7832H37.1763Z" fill="white"/>
<path d="M30.0201 13.5032V17.1032V19.2838V19.2988H16.0401H16.0213L15.9051 17.9957L15.6407 15.0575L15.502 13.5032H30.0201Z" fill="#EBEBEB"/>
<path d="M30 25.2332V28.8332V31.0138V31.0288H23.6456H23.6269L23.5106 29.7257L23.2481 26.7875L23.1094 25.2332H30Z" fill="#EBEBEB"/>
</svg>
