<svg width="60" height="60" viewBox="0 0 60 60" fill="none" xmlns="http://www.w3.org/2000/svg">
<g clip-path="url(#clip0_2335_707)">
<path d="M41.6042 13.5817C44.2317 13.5817 46.3623 11.45 46.3623 8.82198C46.3623 6.19382 44.2317 4.06323 41.6042 4.06323C38.9752 4.06323 36.8445 6.19394 36.8445 8.82198C36.8445 11.45 38.9752 13.5817 41.6042 13.5817Z" fill="#333E4D"/>
<path d="M59.6955 27.2396L56.5403 22.4934C55.7735 21.3719 54.7567 20.4443 53.5719 19.78L47.3832 16.3143C46.2493 15.7841 45.3915 15.4468 44.3142 15.5925L41.3531 15.9951C40.249 16.1446 39.2426 16.7073 38.5363 17.5689L32.9 23.5669L27.7373 25.4705C26.7593 25.8308 26.2344 26.8928 26.5437 27.8877L26.5676 27.9643C26.8714 28.9438 27.8796 29.5217 28.8779 29.2917L33.0851 28.3209C34.1341 28.0784 35.1309 27.6462 36.0232 27.0443L38.9494 25.0775L39.9825 32.933C40.0583 33.5091 39.9423 34.0946 39.6518 34.5987L30.8911 49.8152C30.2661 50.8983 30.6361 52.2841 31.7173 52.9148L31.7925 52.9589C32.8161 53.555 34.1255 53.2675 34.803 52.2976L44.595 38.2897L47.5624 44.212C47.7819 44.6501 48.0723 45.0478 48.4221 45.3891L55.0038 51.825C55.8348 52.6369 57.1489 52.6723 58.021 51.9084L58.1265 51.8163C58.5741 51.4243 58.8453 50.8703 58.8807 50.2771C58.9161 49.6847 58.713 49.101 58.3152 48.6592L52.758 42.4696L49.7391 31.5422L49.7285 31.5518L48.862 23.0033L51.9224 24.3806L56.8152 29.5304C57.4305 30.1793 58.4273 30.2838 59.1634 29.7758L59.2133 29.7412C60.03 29.1796 60.2456 28.0658 59.6955 27.2396Z" fill="#333E4D"/>
<path d="M15.1316 11.843L5.0727 4.9729H30.7898V1.047H0V52.0829H5.0727L15.1316 58.9531V56.9901V52.0829H27.3984V48.1571H15.1316V11.843Z" fill="#333E4D"/>
</g>
<defs>
<clipPath id="clip0_2335_707">
<rect width="60" height="60" fill="white"/>
</clipPath>
</defs>
</svg>
