<svg width="654" height="654" viewBox="0 0 654 654" fill="none" xmlns="http://www.w3.org/2000/svg">
<path d="M500.117 172.958C429.235 172.958 351.668 274.627 326.885 309.913C301.869 274.338 224.554 173.276 153.883 173.276C69.0352 173.276 0 242.311 0 327.158C0 412.005 69.0352 481.041 153.883 481.041C224.765 481.041 302.332 379.372 327.115 344.086C352.131 379.661 429.448 480.723 500.117 480.723C584.965 480.723 654 411.688 654 326.841C654 241.993 584.965 172.958 500.117 172.958ZM153.883 461.805C79.6347 461.805 19.2357 401.406 19.2357 327.158C19.2357 252.91 79.6347 192.511 153.883 192.511C219.177 192.511 297.955 301.739 315.412 327.158C297.955 352.577 219.177 461.805 153.883 461.805ZM500.117 461.487C434.823 461.487 356.045 352.259 338.588 326.841C356.035 301.422 434.822 192.194 500.117 192.194C574.365 192.194 634.764 252.593 634.764 326.841C634.764 401.088 574.365 461.487 500.117 461.487Z" fill="#010002"/>
</svg>
