<svg width="18" height="18" viewBox="0 0 61 61" fill="none" xmlns="http://www.w3.org/2000/svg">
<path d="M16.3871 20.9758C18.4582 20.9758 20.1371 19.2968 20.1371 17.2258C20.1371 15.1547 18.4582 13.4758 16.3871 13.4758C14.316 13.4758 12.6371 15.1547 12.6371 17.2258C12.6371 19.2968 14.316 20.9758 16.3871 20.9758Z" fill="#F5F1F1"/>
<path d="M12.6371 25.9758C12.6371 24.5951 13.7564 23.4758 15.1371 23.4758H17.6371C19.0178 23.4758 20.1371 24.595 20.1371 25.9758V45.9758C20.1371 47.3565 19.0178 48.4758 17.6371 48.4758H15.1371C13.7564 48.4758 12.6371 47.3565 12.6371 45.9758V25.9758Z" fill="#ffffffff"/>
<path d="M27.6371 48.4758H30.1371C31.5178 48.4758 32.6371 47.3565 32.6371 45.9758V34.7258C32.6371 30.9758 40.1371 28.4758 40.1371 33.4758V45.9768C40.1371 47.3575 41.2563 48.4758 42.6371 48.4758H45.1371C46.5178 48.4758 47.6371 47.3565 47.6371 45.9758V30.9758C47.6371 25.9758 43.8871 23.4758 38.8871 23.4758C33.8871 23.4758 32.6371 27.2258 32.6371 27.2258V25.9758C32.6371 24.595 31.5178 23.4758 30.1371 23.4758H27.6371C26.2563 23.4758 25.1371 24.5951 25.1371 25.9758V45.9758C25.1371 47.3565 26.2563 48.4758 27.6371 48.4758Z" fill="#F5F1F1"/>
<path fill-rule="evenodd" clip-rule="evenodd" d="M50.1371 3.47577C54.2793 3.47577 57.6371 6.83364 57.6371 10.9758V50.9758C57.6371 55.118 54.2793 58.4758 50.1371 58.4758H10.1371C5.99496 58.4758 2.63708 55.118 2.63708 50.9758V10.9758C2.63708 6.83364 5.99496 3.47577 10.1371 3.47577H50.1371ZM50.1371 8.47577C51.5178 8.47577 52.6371 9.59507 52.6371 10.9758V50.9758C52.6371 52.3565 51.5178 53.4758 50.1371 53.4758H10.1371C8.75638 53.4758 7.63708 52.3565 7.63708 50.9758V10.9758C7.63708 9.59507 8.75638 8.47577 10.1371 8.47577H50.1371Z" fill="#F5F1F1"/>
</svg>
