<svg width="30" height="30" viewBox="0 0 60 60" fill="none" xmlns="http://www.w3.org/2000/svg">
<g clip-path="url(#clip0_245_66)">
<path fill-rule="evenodd" clip-rule="evenodd" d="M0 0.625H60V59.375H0V0.625ZM41.4 24.2348C39.2454 24.2348 38.5091 25.3329 38.5091 26.2389C38.5091 27.2272 39 27.9135 41.8909 29.4234C46.1727 31.5099 47.5092 33.5139 47.5092 36.4515C47.5092 40.844 44.1819 43.205 39.6819 43.205C37.3091 43.205 35.2636 42.7108 34.0909 42.0245C33.9 41.9422 33.8728 41.8049 33.8728 41.5852V37.5496C33.8728 37.2751 34.0091 37.1927 34.2001 37.33C35.9182 38.4557 37.8819 38.9497 39.6819 38.9497C41.8364 38.9497 42.7364 38.0438 42.7364 36.8084C42.7364 35.8201 42.1091 34.9416 39.3545 33.514C35.4817 31.6472 33.8728 29.753 33.8728 26.5958C33.8728 23.0543 36.6274 20.1168 41.4 20.1168C43.7455 20.1168 45.3818 20.4738 46.2818 20.8855C46.5 21.0228 46.5545 21.2424 46.5545 21.4346V25.1955C46.5545 25.4151 46.4181 25.5525 46.1453 25.47C44.9454 24.7016 43.1727 24.2348 41.4 24.2348ZM17.9454 27.5018C18.5727 27.5567 19.0637 27.5567 20.1546 27.5567C23.3456 27.5567 26.3455 26.4311 26.3455 22.0661C26.3455 18.5796 24.191 16.8224 20.5637 16.8224C19.4729 16.8224 18.4364 16.8774 17.9454 16.9048V27.5018ZM13.091 12.924C13.091 12.7319 13.4729 12.5945 13.6909 12.5945C15.4365 12.5122 18.0273 12.4573 20.7273 12.4573C28.2818 12.4573 31.2272 16.6302 31.2272 21.9562C31.2272 28.9292 26.209 31.9217 20.0455 31.9217C19.0091 31.9217 18.6547 31.8668 17.9182 31.8668V42.4088C17.9182 42.6284 17.8364 42.7383 17.5909 42.7383H13.4182C13.2 42.7383 13.0909 42.6559 13.0909 42.4088L13.091 12.924Z" fill="#2861D3"/>
</g>
<defs>
<clipPath id="clip0_245_66">
<rect width="60" height="60" fill="white"/>
</clipPath>
</defs>
</svg>
