<svg width="30" height="30" viewBox="0 0 60 60" fill="none" xmlns="http://www.w3.org/2000/svg">
<g clip-path="url(#clip0_243_36)">
<path d="M0 0H60V60H0V0Z" fill="#222222"/>
<path d="M29.953 34.9809C32.724 34.9809 34.9704 32.7345 34.9704 29.9635C34.9704 27.1924 32.724 24.946 29.953 24.946C27.1819 24.946 24.9355 27.1924 24.9355 29.9635C24.9355 32.7345 27.1819 34.9809 29.953 34.9809Z" fill="#00D8FF"/>
<path d="M29.9536 19.7629C36.6888 19.7629 42.9464 20.7296 47.6637 22.3529C53.3477 24.3094 56.843 27.2758 56.843 29.9619C56.843 32.7608 53.1388 35.9128 47.0353 37.9341C42.4208 39.4628 36.3472 40.262 29.9536 40.262C23.3974 40.262 17.1912 39.5126 12.5236 37.9175C6.61912 35.8996 3.0625 32.7077 3.0625 29.9619C3.0625 27.2973 6.40025 24.3542 12.0046 22.401C16.7402 20.7512 23.152 19.7629 29.9536 19.7629Z" stroke="#00D8FF" stroke-width="2.40003" stroke-miterlimit="10"/>
<path d="M21.0744 24.8931C24.4387 19.0582 28.4032 14.1204 32.1671 10.8457C36.702 6.89939 41.018 5.35404 43.3444 6.69545C45.7685 8.09322 46.6489 12.8768 45.3507 19.176C44.3691 23.938 42.0278 29.5971 38.8327 35.1368C35.5579 40.8158 31.8073 45.8183 28.0948 49.0649C23.3974 53.172 18.8542 54.6576 16.4765 53.2864C14.1684 51.9549 13.2863 47.5941 14.3923 41.7626C15.3274 36.8314 17.6753 30.7843 21.0744 24.8931Z" stroke="#00D8FF" stroke-width="2.40003" stroke-miterlimit="10"/>
<path d="M21.0836 35.1484C17.7094 29.3185 15.4113 23.419 14.4529 18.5227C13.2989 12.6231 14.1146 8.11144 16.4393 6.76673C18.8618 5.36397 23.4448 6.99057 28.2533 11.2602C31.8895 14.4885 35.6219 19.3434 38.8253 24.8782C42.11 30.5522 44.5723 36.2991 45.529 41.1358C46.7411 47.2575 45.7595 51.935 43.3834 53.3096C41.077 54.6444 36.8588 53.2317 32.3587 49.36C28.5584 46.0886 24.491 41.0347 21.0836 35.1484Z" stroke="#00D8FF" stroke-width="2.40003" stroke-miterlimit="10"/>
</g>
<defs>
<clipPath id="clip0_243_36">
<rect width="60" height="60" fill="white"/>
</clipPath>
</defs>
</svg>
