<svg width="1674" height="1130" viewBox="0 0 1674 1130" fill="none" xmlns="http://www.w3.org/2000/svg">
<path d="M228.5 13.5C228.5 13.5 93.2723 164.549 49.0001 283C-19.0203 464.99 -5.92738 594.14 49.0001 780.5C90.2817 920.562 93.3799 1053.15 228.5 1108.5C400.669 1179.03 642.363 1048.46 636.5 862.5C631.831 714.409 411.012 738.675 364.5 598C340.58 525.654 316.032 472.197 349 403.5C391.315 315.326 480.69 287.108 577.5 301C683.978 316.279 808.207 390.686 775 493C751.473 565.49 671.967 552.942 610.5 598C505.285 675.128 493.963 840.072 364.5 824C249.574 809.733 157.228 712.797 172.5 598C191.245 457.101 397.171 562.788 521 493C623.061 435.48 750.543 418.15 751.5 301C752.699 154.212 521.362 116.785 393 188C346.513 213.791 309.865 231.816 295.5 283C269.626 375.194 401.274 389.989 480 444.5C596.272 525.01 666.609 601.091 808 598C919.109 595.571 988.565 565.841 1072.5 493C1156.13 420.424 1126.39 315.363 1213.5 247C1281.05 193.988 1333.43 155.798 1418.5 167.5C1548.34 185.362 1591.44 314.483 1608 444.5C1619.33 533.468 1582.4 582.118 1564.5 670C1549.16 745.315 1569.69 801.065 1523.5 862.5C1455.64 952.749 1356.25 924.302 1244 936.5C1126.41 949.278 1013.99 1014.96 941.5 921.5C906.353 876.189 887.16 836.271 900.5 780.5C914.858 720.472 961.371 703.047 1013.5 670C1069.16 634.717 1106.61 612.533 1172.5 613.5C1219.01 614.183 1241.2 640.003 1287.5 644.5C1314.51 647.124 1331.99 655.035 1357 644.5C1404.97 624.294 1424.89 564.489 1400.5 518.5C1374.28 469.064 1312.01 512.332 1259.5 493C1174.22 461.604 1108.26 438.044 1072.5 354.5C1055.75 315.369 1055.86 289.544 1054.5 247C1052.82 194.42 1045.69 158.76 1072.5 113.5C1091.94 80.693 1111.38 66.7536 1144 47C1179.23 25.6649 1203.55 21.2266 1244 13.5C1319.92 -1.00098 1371.51 -6.30962 1441.5 26.5C1501.16 54.4694 1512.37 101.692 1564.5 142C1604.51 172.942 1628.39 188.747 1672.5 213.5" stroke="black" stroke-width="4"/>
</svg>
