<svg width="1800" height="40" viewBox="0 0 13640 1060" fill="none" xmlns="http://www.w3.org/2000/svg">
<g clip-path="url(#clip0_2441_173)">
<path d="M784.616 454.028H600C593.709 454.028 588.053 458.159 585.716 464L542.413 572.411L507.297 420.327C505.68 413.312 499.466 408.42 492.219 408.439C485.022 408.48 478.816 413.525 477.277 420.555L391.047 814.763L338.4 222.497C337.778 215.511 332.514 209.833 325.6 208.684C318.675 207.545 311.864 210.906 309.017 217.313L190.002 484.797H15.3844C6.88906 484.797 0 491.686 0 500.181C0 508.678 6.88906 515.566 15.3844 515.566H200C206.08 515.566 211.589 512.287 214.059 506.731L313.013 284.236L369.291 917.455C369.962 925.023 376.059 931.003 383.641 931.486C383.972 931.506 384.298 931.534 384.625 931.534C391.805 931.534 398.092 926.547 399.645 919.447L492.709 494.012L523.472 627.317C524.983 633.869 530.577 638.681 537.281 639.197C544.02 639.719 550.248 635.514 552.747 629.27L610.417 484.795H784.617C793.114 484.795 800.002 477.906 800.002 469.411C800 460.917 793.111 454.028 784.616 454.028Z" fill="#0D0D0D"/>
</g>
<g clip-path="url(#clip1_2441_173)">
<path d="M1558.62 515.972H1374C1367.71 515.972 1362.05 511.841 1359.72 506L1316.41 397.589L1281.3 549.673C1279.68 556.688 1273.47 561.58 1266.22 561.561C1259.02 561.52 1252.82 556.475 1251.28 549.445L1165.05 155.237L1112.4 747.503C1111.78 754.489 1106.51 760.167 1099.6 761.316C1092.68 762.455 1085.86 759.094 1083.02 752.687L964.002 485.203H789.384C780.889 485.203 774 478.314 774 469.819C774 461.322 780.889 454.434 789.384 454.434H974C980.08 454.434 985.589 457.713 988.059 463.269L1087.01 685.764L1143.29 52.5453C1143.96 44.9765 1150.06 38.9968 1157.64 38.514C1157.97 38.4937 1158.3 38.4656 1158.63 38.4656C1165.8 38.4656 1172.09 43.4531 1173.65 50.5531L1266.71 475.988L1297.47 342.683C1298.98 336.131 1304.58 331.319 1311.28 330.803C1318.02 330.281 1324.25 334.486 1326.75 340.73L1384.42 485.205H1558.62C1567.11 485.205 1574 492.094 1574 500.589C1574 509.083 1567.11 515.972 1558.62 515.972Z" fill="#0D0D0D"/>
</g>
<g clip-path="url(#clip2_2441_173)">
<path d="M2320.62 545.972H2136C2129.71 545.972 2124.05 541.841 2121.72 536L2078.41 427.589L2043.3 579.673C2041.68 586.688 2035.47 591.58 2028.22 591.561C2021.02 591.52 2014.82 586.475 2013.28 579.445L1927.05 185.237L1874.4 777.503C1873.78 784.489 1868.51 790.167 1861.6 791.316C1854.68 792.455 1847.86 789.094 1845.02 782.687L1726 515.203H1551.38C1542.89 515.203 1536 508.314 1536 499.819C1536 491.322 1542.89 484.434 1551.38 484.434H1736C1742.08 484.434 1747.59 487.713 1750.06 493.269L1849.01 715.764L1905.29 82.5453C1905.96 74.9765 1912.06 68.9968 1919.64 68.514C1919.97 68.4937 1920.3 68.4656 1920.63 68.4656C1927.8 68.4656 1934.09 73.4531 1935.65 80.5531L2028.71 505.988L2059.47 372.683C2060.98 366.131 2066.58 361.319 2073.28 360.803C2080.02 360.281 2086.25 364.486 2088.75 370.73L2146.42 515.205H2320.62C2329.11 515.205 2336 522.094 2336 530.589C2336 539.083 2329.11 545.972 2320.62 545.972Z" fill="#0D0D0D"/>
</g>
<g clip-path="url(#clip3_2441_173)">
<path d="M3069.62 484.028H2885C2878.71 484.028 2873.05 488.159 2870.72 494L2827.41 602.411L2792.3 450.327C2790.68 443.312 2784.47 438.42 2777.22 438.439C2770.02 438.48 2763.82 443.525 2762.28 450.555L2676.05 844.763L2623.4 252.497C2622.78 245.511 2617.51 239.833 2610.6 238.684C2603.68 237.545 2596.86 240.906 2594.02 247.313L2475 514.797H2300.38C2291.89 514.797 2285 521.686 2285 530.181C2285 538.678 2291.89 545.566 2300.38 545.566H2485C2491.08 545.566 2496.59 542.287 2499.06 536.731L2598.01 314.236L2654.29 947.455C2654.96 955.023 2661.06 961.003 2668.64 961.486C2668.97 961.506 2669.3 961.534 2669.63 961.534C2676.8 961.534 2683.09 956.547 2684.65 949.447L2777.71 524.012L2808.47 657.317C2809.98 663.869 2815.58 668.681 2822.28 669.197C2829.02 669.719 2835.25 665.514 2837.75 659.27L2895.42 514.795H3069.62C3078.11 514.795 3085 507.906 3085 499.411C3085 490.917 3078.11 484.028 3069.62 484.028Z" fill="#0D0D0D"/>
</g>
<g clip-path="url(#clip4_2441_173)">
<path d="M3784.62 454.028H3600C3593.71 454.028 3588.05 458.159 3585.72 464L3542.41 572.411L3507.3 420.327C3505.68 413.312 3499.47 408.42 3492.22 408.439C3485.02 408.48 3478.82 413.525 3477.28 420.555L3391.05 814.763L3338.4 222.497C3337.78 215.511 3332.51 209.833 3325.6 208.684C3318.68 207.545 3311.86 210.906 3309.02 217.313L3190 484.797H3015.38C3006.89 484.797 3000 491.686 3000 500.181C3000 508.678 3006.89 515.566 3015.38 515.566H3200C3206.08 515.566 3211.59 512.287 3214.06 506.731L3313.01 284.236L3369.29 917.455C3369.96 925.023 3376.06 931.003 3383.64 931.486C3383.97 931.506 3384.3 931.534 3384.63 931.534C3391.8 931.534 3398.09 926.547 3399.65 919.447L3492.71 494.012L3523.47 627.317C3524.98 633.869 3530.58 638.681 3537.28 639.197C3544.02 639.719 3550.25 635.514 3552.75 629.27L3610.42 484.795H3784.62C3793.11 484.795 3800 477.906 3800 469.411C3800 460.917 3793.11 454.028 3784.62 454.028Z" fill="#0D0D0D"/>
</g>
<g clip-path="url(#clip5_2441_173)">
<path d="M4548.62 515.972H4364C4357.71 515.972 4352.05 511.841 4349.72 506L4306.41 397.589L4271.3 549.673C4269.68 556.688 4263.47 561.58 4256.22 561.561C4249.02 561.52 4242.82 556.475 4241.28 549.445L4155.05 155.237L4102.4 747.503C4101.78 754.489 4096.51 760.167 4089.6 761.316C4082.68 762.455 4075.86 759.094 4073.02 752.687L3954 485.203H3779.38C3770.89 485.203 3764 478.314 3764 469.819C3764 461.322 3770.89 454.434 3779.38 454.434H3964C3970.08 454.434 3975.59 457.713 3978.06 463.269L4077.01 685.764L4133.29 52.5453C4133.96 44.9765 4140.06 38.9968 4147.64 38.514C4147.97 38.4937 4148.3 38.4656 4148.63 38.4656C4155.8 38.4656 4162.09 43.4531 4163.65 50.5531L4256.71 475.988L4287.47 342.683C4288.98 336.131 4294.58 331.319 4301.28 330.803C4308.02 330.281 4314.25 334.486 4316.75 340.73L4374.42 485.205H4548.62C4557.11 485.205 4564 492.094 4564 500.589C4564 509.083 4557.11 515.972 4548.62 515.972Z" fill="#0D0D0D"/>
</g>
<g clip-path="url(#clip6_2441_173)">
<path d="M5284.62 545.972H5100C5093.71 545.972 5088.05 541.841 5085.72 536L5042.41 427.589L5007.3 579.673C5005.68 586.688 4999.47 591.58 4992.22 591.561C4985.02 591.52 4978.82 586.475 4977.28 579.445L4891.05 185.237L4838.4 777.503C4837.78 784.489 4832.51 790.167 4825.6 791.316C4818.68 792.455 4811.86 789.094 4809.02 782.687L4690 515.203H4515.38C4506.89 515.203 4500 508.314 4500 499.819C4500 491.322 4506.89 484.434 4515.38 484.434H4700C4706.08 484.434 4711.59 487.713 4714.06 493.269L4813.01 715.764L4869.29 82.5453C4869.96 74.9765 4876.06 68.9968 4883.64 68.514C4883.97 68.4937 4884.3 68.4656 4884.63 68.4656C4891.8 68.4656 4898.09 73.4531 4899.65 80.5531L4992.71 505.988L5023.47 372.683C5024.98 366.131 5030.58 361.319 5037.28 360.803C5044.02 360.281 5050.25 364.486 5052.75 370.73L5110.42 515.205H5284.62C5293.11 515.205 5300 522.094 5300 530.589C5300 539.083 5293.11 545.972 5284.62 545.972Z" fill="#0D0D0D"/>
</g>
<g clip-path="url(#clip7_2441_173)">
<path d="M6028.62 576.972H5844C5837.71 576.972 5832.05 572.841 5829.72 567L5786.41 458.589L5751.3 610.673C5749.68 617.688 5743.47 622.58 5736.22 622.561C5729.02 622.52 5722.82 617.475 5721.28 610.445L5635.05 216.237L5582.4 808.503C5581.78 815.489 5576.51 821.167 5569.6 822.316C5562.68 823.455 5555.86 820.094 5553.02 813.687L5434 546.203H5259.38C5250.89 546.203 5244 539.314 5244 530.819C5244 522.322 5250.89 515.434 5259.38 515.434H5444C5450.08 515.434 5455.59 518.713 5458.06 524.269L5557.01 746.764L5613.29 113.545C5613.96 105.977 5620.06 99.9968 5627.64 99.514C5627.97 99.4937 5628.3 99.4656 5628.63 99.4656C5635.8 99.4656 5642.09 104.453 5643.65 111.553L5736.71 536.988L5767.47 403.683C5768.98 397.131 5774.58 392.319 5781.28 391.803C5788.02 391.281 5794.25 395.486 5796.75 401.73L5854.42 546.205H6028.62C6037.11 546.205 6044 553.094 6044 561.589C6044 570.083 6037.11 576.972 6028.62 576.972Z" fill="#0D0D0D"/>
</g>
<g clip-path="url(#clip8_2441_173)">
<path d="M6804.62 514.028H6620C6613.71 514.028 6608.05 518.159 6605.72 524L6562.41 632.411L6527.3 480.327C6525.68 473.312 6519.47 468.42 6512.22 468.439C6505.02 468.48 6498.82 473.525 6497.28 480.555L6411.05 874.763L6358.4 282.497C6357.78 275.511 6352.51 269.833 6345.6 268.684C6338.68 267.545 6331.86 270.906 6329.02 277.313L6210 544.797H6035.38C6026.89 544.797 6020 551.686 6020 560.181C6020 568.678 6026.89 575.566 6035.38 575.566H6220C6226.08 575.566 6231.59 572.287 6234.06 566.731L6333.01 344.236L6389.29 977.455C6389.96 985.023 6396.06 991.003 6403.64 991.486C6403.97 991.506 6404.3 991.534 6404.62 991.534C6411.8 991.534 6418.09 986.547 6419.65 979.447L6512.71 554.012L6543.47 687.317C6544.98 693.869 6550.58 698.681 6557.28 699.197C6564.02 699.719 6570.25 695.514 6572.75 689.27L6630.42 544.795H6804.62C6813.11 544.795 6820 537.906 6820 529.411C6820 520.917 6813.11 514.028 6804.62 514.028Z" fill="#0D0D0D"/>
</g>
<g clip-path="url(#clip9_2441_173)">
<path d="M7604.62 484.028H7420C7413.71 484.028 7408.05 488.159 7405.72 494L7362.41 602.411L7327.3 450.327C7325.68 443.312 7319.47 438.42 7312.22 438.439C7305.02 438.48 7298.82 443.525 7297.28 450.555L7211.05 844.763L7158.4 252.497C7157.78 245.511 7152.51 239.833 7145.6 238.684C7138.68 237.545 7131.86 240.906 7129.02 247.313L7010 514.797H6835.38C6826.89 514.797 6820 521.686 6820 530.181C6820 538.678 6826.89 545.566 6835.38 545.566H7020C7026.08 545.566 7031.59 542.287 7034.06 536.731L7133.01 314.236L7189.29 947.455C7189.96 955.023 7196.06 961.003 7203.64 961.486C7203.97 961.506 7204.3 961.534 7204.63 961.534C7211.8 961.534 7218.09 956.547 7219.65 949.447L7312.71 524.012L7343.47 657.317C7344.98 663.869 7350.58 668.681 7357.28 669.197C7364.02 669.719 7370.25 665.514 7372.75 659.27L7430.42 514.795H7604.62C7613.11 514.795 7620 507.906 7620 499.411C7620 490.917 7613.11 484.028 7604.62 484.028Z" fill="#0D0D0D"/>
</g>
<g clip-path="url(#clip10_2441_173)">
<path d="M8378.62 545.972H8194C8187.71 545.972 8182.05 541.841 8179.72 536L8136.41 427.589L8101.3 579.673C8099.68 586.688 8093.47 591.58 8086.22 591.561C8079.02 591.52 8072.82 586.475 8071.28 579.445L7985.05 185.237L7932.4 777.503C7931.78 784.489 7926.51 790.167 7919.6 791.316C7912.68 792.455 7905.86 789.094 7903.02 782.687L7784 515.203H7609.38C7600.89 515.203 7594 508.314 7594 499.819C7594 491.322 7600.89 484.434 7609.38 484.434H7794C7800.08 484.434 7805.59 487.713 7808.06 493.269L7907.01 715.764L7963.29 82.5453C7963.96 74.9765 7970.06 68.9968 7977.64 68.514C7977.97 68.4937 7978.3 68.4656 7978.63 68.4656C7985.8 68.4656 7992.09 73.4531 7993.65 80.5531L8086.71 505.988L8117.47 372.683C8118.98 366.131 8124.58 361.319 8131.28 360.803C8138.02 360.281 8144.25 364.486 8146.75 370.73L8204.42 515.205H8378.62C8387.11 515.205 8394 522.094 8394 530.589C8394 539.083 8387.11 545.972 8378.62 545.972Z" fill="#0D0D0D"/>
</g>
<g clip-path="url(#clip11_2441_173)">
<path d="M9140.62 575.972H8956C8949.71 575.972 8944.05 571.841 8941.72 566L8898.41 457.589L8863.3 609.673C8861.68 616.688 8855.47 621.58 8848.22 621.561C8841.02 621.52 8834.82 616.475 8833.28 609.445L8747.05 215.237L8694.4 807.503C8693.78 814.489 8688.51 820.167 8681.6 821.316C8674.68 822.455 8667.86 819.094 8665.02 812.687L8546 545.203H8371.38C8362.89 545.203 8356 538.314 8356 529.819C8356 521.322 8362.89 514.434 8371.38 514.434H8556C8562.08 514.434 8567.59 517.713 8570.06 523.269L8669.01 745.764L8725.29 112.545C8725.96 104.977 8732.06 98.9968 8739.64 98.514C8739.97 98.4937 8740.3 98.4656 8740.63 98.4656C8747.8 98.4656 8754.09 103.453 8755.65 110.553L8848.71 535.988L8879.47 402.683C8880.98 396.131 8886.58 391.319 8893.28 390.803C8900.02 390.281 8906.25 394.486 8908.75 400.73L8966.42 545.205H9140.62C9149.11 545.205 9156 552.094 9156 560.589C9156 569.083 9149.11 575.972 9140.62 575.972Z" fill="#0D0D0D"/>
</g>
<g clip-path="url(#clip12_2441_173)">
<path d="M9889.62 514.028H9705C9698.71 514.028 9693.05 518.159 9690.72 524L9647.41 632.411L9612.3 480.327C9610.68 473.312 9604.47 468.42 9597.22 468.439C9590.02 468.48 9583.82 473.525 9582.28 480.555L9496.05 874.763L9443.4 282.497C9442.78 275.511 9437.51 269.833 9430.6 268.684C9423.68 267.545 9416.86 270.906 9414.02 277.313L9295 544.797H9120.38C9111.89 544.797 9105 551.686 9105 560.181C9105 568.678 9111.89 575.566 9120.38 575.566H9305C9311.08 575.566 9316.59 572.287 9319.06 566.731L9418.01 344.236L9474.29 977.455C9474.96 985.023 9481.06 991.003 9488.64 991.486C9488.97 991.506 9489.3 991.534 9489.63 991.534C9496.8 991.534 9503.09 986.547 9504.65 979.447L9597.71 554.012L9628.47 687.317C9629.98 693.869 9635.58 698.681 9642.28 699.197C9649.02 699.719 9655.25 695.514 9657.75 689.27L9715.42 544.795H9889.62C9898.11 544.795 9905 537.906 9905 529.411C9905 520.917 9898.11 514.028 9889.62 514.028Z" fill="#0D0D0D"/>
</g>
<g clip-path="url(#clip13_2441_173)">
<path d="M10604.6 484.028H10420C10413.7 484.028 10408.1 488.159 10405.7 494L10362.4 602.411L10327.3 450.327C10325.7 443.312 10319.5 438.42 10312.2 438.439C10305 438.48 10298.8 443.525 10297.3 450.555L10211 844.763L10158.4 252.497C10157.8 245.511 10152.5 239.833 10145.6 238.684C10138.7 237.545 10131.9 240.906 10129 247.313L10010 514.797H9835.38C9826.89 514.797 9820 521.686 9820 530.181C9820 538.678 9826.89 545.566 9835.38 545.566H10020C10026.1 545.566 10031.6 542.287 10034.1 536.731L10133 314.236L10189.3 947.455C10190 955.023 10196.1 961.003 10203.6 961.486C10204 961.506 10204.3 961.534 10204.6 961.534C10211.8 961.534 10218.1 956.547 10219.6 949.447L10312.7 524.012L10343.5 657.317C10345 663.869 10350.6 668.681 10357.3 669.197C10364 669.719 10370.2 665.514 10372.7 659.27L10430.4 514.795H10604.6C10613.1 514.795 10620 507.906 10620 499.411C10620 490.917 10613.1 484.028 10604.6 484.028Z" fill="#0D0D0D"/>
</g>
<g clip-path="url(#clip14_2441_173)">
<path d="M11368.6 545.972H11184C11177.7 545.972 11172.1 541.841 11169.7 536L11126.4 427.589L11091.3 579.673C11089.7 586.688 11083.5 591.58 11076.2 591.561C11069 591.52 11062.8 586.475 11061.3 579.445L10975 185.237L10922.4 777.503C10921.8 784.489 10916.5 790.167 10909.6 791.316C10902.7 792.455 10895.9 789.094 10893 782.687L10774 515.203H10599.4C10590.9 515.203 10584 508.314 10584 499.819C10584 491.322 10590.9 484.434 10599.4 484.434H10784C10790.1 484.434 10795.6 487.713 10798.1 493.269L10897 715.764L10953.3 82.5453C10954 74.9765 10960.1 68.9968 10967.6 68.514C10968 68.4937 10968.3 68.4656 10968.6 68.4656C10975.8 68.4656 10982.1 73.4531 10983.6 80.5531L11076.7 505.988L11107.5 372.683C11109 366.131 11114.6 361.319 11121.3 360.803C11128 360.281 11134.2 364.486 11136.7 370.73L11194.4 515.205H11368.6C11377.1 515.205 11384 522.094 11384 530.589C11384 539.083 11377.1 545.972 11368.6 545.972Z" fill="#0D0D0D"/>
</g>
<g clip-path="url(#clip15_2441_173)">
<path d="M12104.6 575.972H11920C11913.7 575.972 11908.1 571.841 11905.7 566L11862.4 457.589L11827.3 609.673C11825.7 616.688 11819.5 621.58 11812.2 621.561C11805 621.52 11798.8 616.475 11797.3 609.445L11711 215.237L11658.4 807.503C11657.8 814.489 11652.5 820.167 11645.6 821.316C11638.7 822.455 11631.9 819.094 11629 812.687L11510 545.203H11335.4C11326.9 545.203 11320 538.314 11320 529.819C11320 521.322 11326.9 514.434 11335.4 514.434H11520C11526.1 514.434 11531.6 517.713 11534.1 523.269L11633 745.764L11689.3 112.545C11690 104.977 11696.1 98.9968 11703.6 98.514C11704 98.4937 11704.3 98.4656 11704.6 98.4656C11711.8 98.4656 11718.1 103.453 11719.6 110.553L11812.7 535.988L11843.5 402.683C11845 396.131 11850.6 391.319 11857.3 390.803C11864 390.281 11870.2 394.486 11872.7 400.73L11930.4 545.205H12104.6C12113.1 545.205 12120 552.094 12120 560.589C12120 569.083 12113.1 575.972 12104.6 575.972Z" fill="#0D0D0D"/>
</g>
<g clip-path="url(#clip16_2441_173)">
<path d="M12848.6 606.972H12664C12657.7 606.972 12652.1 602.841 12649.7 597L12606.4 488.589L12571.3 640.673C12569.7 647.688 12563.5 652.58 12556.2 652.561C12549 652.52 12542.8 647.475 12541.3 640.445L12455 246.237L12402.4 838.503C12401.8 845.489 12396.5 851.167 12389.6 852.316C12382.7 853.455 12375.9 850.094 12373 843.687L12254 576.203H12079.4C12070.9 576.203 12064 569.314 12064 560.819C12064 552.322 12070.9 545.434 12079.4 545.434H12264C12270.1 545.434 12275.6 548.713 12278.1 554.269L12377 776.764L12433.3 143.545C12434 135.977 12440.1 129.997 12447.6 129.514C12448 129.494 12448.3 129.466 12448.6 129.466C12455.8 129.466 12462.1 134.453 12463.6 141.553L12556.7 566.988L12587.5 433.683C12589 427.131 12594.6 422.319 12601.3 421.803C12608 421.281 12614.2 425.486 12616.7 431.73L12674.4 576.205H12848.6C12857.1 576.205 12864 583.094 12864 591.589C12864 600.083 12857.1 606.972 12848.6 606.972Z" fill="#0D0D0D"/>
</g>
<g clip-path="url(#clip17_2441_173)">
<path d="M13624.6 544.028H13440C13433.7 544.028 13428.1 548.159 13425.7 554L13382.4 662.411L13347.3 510.327C13345.7 503.312 13339.5 498.42 13332.2 498.439C13325 498.48 13318.8 503.525 13317.3 510.555L13231 904.763L13178.4 312.497C13177.8 305.511 13172.5 299.833 13165.6 298.684C13158.7 297.545 13151.9 300.906 13149 307.313L13030 574.797H12855.4C12846.9 574.797 12840 581.686 12840 590.181C12840 598.678 12846.9 605.566 12855.4 605.566H13040C13046.1 605.566 13051.6 602.287 13054.1 596.731L13153 374.236L13209.3 1007.45C13210 1015.02 13216.1 1021 13223.6 1021.49C13224 1021.51 13224.3 1021.53 13224.6 1021.53C13231.8 1021.53 13238.1 1016.55 13239.6 1009.45L13332.7 584.012L13363.5 717.317C13365 723.869 13370.6 728.681 13377.3 729.197C13384 729.719 13390.2 725.514 13392.7 719.27L13450.4 574.795H13624.6C13633.1 574.795 13640 567.906 13640 559.411C13640 550.917 13633.1 544.028 13624.6 544.028Z" fill="#0D0D0D"/>
</g>
<defs>
<clipPath id="clip0_2441_173">
<rect width="800" height="800" fill="white" transform="translate(0 170)"/>
</clipPath>
<clipPath id="clip1_2441_173">
<rect width="800" height="800" fill="white" transform="matrix(1 0 0 -1 774 800)"/>
</clipPath>
<clipPath id="clip2_2441_173">
<rect width="800" height="800" fill="white" transform="matrix(1 0 0 -1 1536 830)"/>
</clipPath>
<clipPath id="clip3_2441_173">
<rect width="800" height="800" fill="white" transform="translate(2285 200)"/>
</clipPath>
<clipPath id="clip4_2441_173">
<rect width="800" height="800" fill="white" transform="translate(3000 170)"/>
</clipPath>
<clipPath id="clip5_2441_173">
<rect width="800" height="800" fill="white" transform="matrix(1 0 0 -1 3764 800)"/>
</clipPath>
<clipPath id="clip6_2441_173">
<rect width="800" height="800" fill="white" transform="matrix(1 0 0 -1 4500 830)"/>
</clipPath>
<clipPath id="clip7_2441_173">
<rect width="800" height="800" fill="white" transform="matrix(1 0 0 -1 5244 861)"/>
</clipPath>
<clipPath id="clip8_2441_173">
<rect width="800" height="800" fill="white" transform="translate(6020 230)"/>
</clipPath>
<clipPath id="clip9_2441_173">
<rect width="800" height="800" fill="white" transform="translate(6820 200)"/>
</clipPath>
<clipPath id="clip10_2441_173">
<rect width="800" height="800" fill="white" transform="matrix(1 0 0 -1 7594 830)"/>
</clipPath>
<clipPath id="clip11_2441_173">
<rect width="800" height="800" fill="white" transform="matrix(1 0 0 -1 8356 860)"/>
</clipPath>
<clipPath id="clip12_2441_173">
<rect width="800" height="800" fill="white" transform="translate(9105 230)"/>
</clipPath>
<clipPath id="clip13_2441_173">
<rect width="800" height="800" fill="white" transform="translate(9820 200)"/>
</clipPath>
<clipPath id="clip14_2441_173">
<rect width="800" height="800" fill="white" transform="matrix(1 0 0 -1 10584 830)"/>
</clipPath>
<clipPath id="clip15_2441_173">
<rect width="800" height="800" fill="white" transform="matrix(1 0 0 -1 11320 860)"/>
</clipPath>
<clipPath id="clip16_2441_173">
<rect width="800" height="800" fill="white" transform="matrix(1 0 0 -1 12064 891)"/>
</clipPath>
<clipPath id="clip17_2441_173">
<rect width="800" height="800" fill="white" transform="translate(12840 260)"/>
</clipPath>
</defs>
</svg>
