<svg width="30" height="30" viewBox="0 0 60 60" fill="none" xmlns="http://www.w3.org/2000/svg">
<path d="M48.9561 32.9475C47.3074 32.9497 45.6808 33.3267 44.1992 34.05C43.7353 33.2802 43.3771 32.4515 43.1342 31.5862C42.9946 30.908 42.9624 30.212 43.0386 29.5237C43.1988 28.7664 43.4068 28.0199 43.6611 27.2887C43.6517 27.1931 43.5467 26.7412 42.4911 26.7262C41.4355 26.7112 40.5261 26.9269 40.4286 27.2062C40.2452 27.7165 40.098 28.2391 39.9879 28.77C39.1143 30.9253 38.0389 32.9933 36.7761 34.9462C36.0686 33.7864 35.7776 32.42 35.9511 31.0725C36.1113 30.3151 36.3193 29.5686 36.5736 28.8375C36.5642 28.7419 36.4592 28.29 35.4036 28.275C34.3479 28.26 33.4386 28.4756 33.3411 28.755C33.2436 29.0344 33.1198 29.6925 32.9005 30.3187C32.6811 30.945 30.1198 36.6675 29.4486 38.1431C29.1036 38.8931 28.8055 39.5044 28.5955 39.9169C28.5855 39.9437 28.5729 39.9694 28.5579 39.9937C28.3704 40.3481 28.2711 40.5412 28.2711 40.5412V40.5506C28.1267 40.8094 27.973 41.0494 27.8961 41.0494C27.762 40.5137 27.7684 39.9524 27.9148 39.42C28.2898 37.4344 29.2086 34.3481 29.1992 34.2412C29.1992 34.1831 29.3717 33.6469 28.6048 33.3694C28.427 33.2847 28.2272 33.2573 28.0332 33.2909C27.8391 33.3245 27.6602 33.4174 27.5211 33.5569C27.4536 33.5569 27.4067 33.72 27.4067 33.72C27.4067 33.72 28.2411 30.2494 25.8148 30.2494C24.87 30.4394 23.9727 30.8165 23.1758 31.3584C22.3788 31.9004 21.6983 32.5962 21.1742 33.405C20.5217 33.7594 19.1323 34.5169 17.6455 35.3325C17.083 35.6494 16.4942 35.9662 15.9486 36.27C15.9111 36.2325 15.8717 36.1837 15.8342 36.1462C12.8811 33 7.45295 30.78 7.68732 26.5706C7.77357 25.0369 8.30045 21.0094 18.1105 16.1175C26.1842 12.1387 32.6098 13.2412 33.7217 15.6862C35.3136 19.1775 30.2792 25.6594 21.9373 26.5987C21.0145 26.786 20.0613 26.7634 19.1484 26.5326C18.2354 26.3019 17.386 25.8689 16.6629 25.2656C16.2223 24.7856 16.1548 24.7575 15.9917 24.8531C15.7236 24.9975 15.8961 25.4287 15.9917 25.6781C16.3099 26.254 16.7404 26.7603 17.2576 27.167C17.7748 27.5738 18.3683 27.8727 19.003 28.0462C22.2846 28.7554 25.7062 28.4163 28.7848 27.0769C33.8473 25.1212 37.7848 19.6837 36.6298 15.1294C35.4692 10.5075 27.7986 8.98312 20.5386 11.5669C15.9912 13.097 11.7895 15.5072 8.17295 18.66C4.17358 22.4006 3.5417 25.65 3.80045 27.0131C4.73795 31.8469 11.3961 34.9912 14.0604 37.3256C13.9254 37.4025 13.8017 37.47 13.6967 37.5262C12.3636 38.1881 7.28232 40.845 6.0092 43.6537C4.57107 46.8412 6.23982 49.1194 7.34232 49.4269C9.00359 49.8245 10.7476 49.6935 12.3308 49.0522C13.914 48.4108 15.2575 47.2911 16.1736 45.8494C16.9537 44.6535 17.4332 43.2868 17.5713 41.8657C17.7094 40.4446 17.502 39.0112 16.9667 37.6875C16.9577 37.6661 16.945 37.6464 16.9292 37.6294L17.9736 37.0162C18.6542 36.6131 19.3255 36.24 19.9011 35.9325C19.5107 37.0583 19.2816 38.2337 19.2205 39.4237C19.0879 41.2477 19.6461 43.0548 20.7842 44.4862C20.9574 44.6353 21.1584 44.7485 21.3757 44.8193C21.5929 44.8901 21.8221 44.9171 22.0498 44.8987C23.1748 44.8987 23.6904 43.9612 24.2548 42.8475C24.9448 41.4862 25.5673 39.9037 25.5673 39.9037C25.5673 39.9037 24.7911 44.1806 26.9004 44.1806C27.6673 44.1806 28.4436 43.1831 28.7904 42.6806V42.69C28.7904 42.69 28.8092 42.6619 28.8486 42.5944L28.9723 42.3937V42.375C29.2798 41.8387 29.9698 40.62 30.9955 38.5969C32.3192 35.9887 33.5942 32.7281 33.5942 32.7281C33.7172 33.4447 33.8869 34.1525 34.1023 34.8469C34.4111 35.6886 34.7764 36.5086 35.1954 37.3012C34.8879 37.7325 34.6967 37.9725 34.6967 37.9725L34.7061 37.9819C34.4567 38.3081 34.1886 38.6625 33.8905 39.0075C33.0035 39.9827 32.1805 41.0142 31.4267 42.0956C31.3147 42.2773 31.2762 42.4948 31.3191 42.7038C31.3619 42.9129 31.4829 43.0977 31.6573 43.2206C32.052 43.426 32.5019 43.5002 32.9417 43.4325C33.6044 43.3951 34.2561 43.2461 34.8692 42.9919C35.4617 42.7833 36.0207 42.4896 36.5286 42.12C37.0521 41.7573 37.4736 41.2659 37.7524 40.6933C38.0311 40.1206 38.1579 39.4858 38.1204 38.85C38.0615 38.0491 37.8569 37.2656 37.5167 36.5381C37.6123 36.4031 37.7042 36.27 37.7942 36.135C38.8602 34.5438 39.821 32.8847 40.6704 31.1681C40.7934 31.8847 40.9632 32.5925 41.1786 33.2869C41.4333 34.0143 41.7468 34.7197 42.1161 35.3962C40.8897 36.3398 39.9238 37.58 39.3092 39C38.7055 40.7456 39.1742 41.5312 40.0592 41.7131C40.5435 41.7465 41.0277 41.6473 41.4598 41.4262C42.0952 41.2174 42.6938 40.9099 43.2336 40.515C43.8027 40.1791 44.2795 39.7069 44.6208 39.141C44.9622 38.5751 45.1575 37.9332 45.1892 37.2731C45.1466 36.6142 44.9978 35.9664 44.7486 35.355C46.3669 34.7228 48.1216 34.5212 49.8411 34.77C54.4048 35.3062 55.3067 38.1544 55.1342 39.3544C55.0533 39.7798 54.8823 40.1829 54.6326 40.5367C54.3829 40.8906 54.0604 41.1868 53.6867 41.4056C53.3698 41.6062 53.2648 41.6737 53.293 41.8181C53.3305 42.03 53.4804 42.0187 53.7523 41.9812C54.4402 41.7675 55.047 41.3502 55.4929 40.7845C55.9388 40.2188 56.2027 39.5312 56.2498 38.8125C56.3942 36 53.7092 32.9156 48.9617 32.9437L48.9561 32.9475ZM13.7436 44.8125C12.2286 46.4625 10.1192 47.085 9.20795 46.5581C8.2292 45.9956 8.61357 43.5581 10.4736 41.8106C11.5769 40.8174 12.7695 39.928 14.0361 39.1537C14.2573 39.0187 14.5836 38.8275 14.9736 38.5912L15.0786 38.5331L15.3092 38.3887C15.6415 39.5021 15.6716 40.6838 15.3965 41.8127C15.1214 42.9415 14.5509 43.9769 13.7436 44.8125ZM24.7705 37.3125C24.2436 38.5969 23.1411 41.8875 22.4698 41.7037C21.8942 41.55 21.5323 39.0562 22.3555 36.5925C22.771 35.4065 23.3764 34.2958 24.1479 33.3037C24.9729 32.3831 25.8842 32.0756 26.1036 32.4506C25.9034 34.1285 25.4541 35.7672 24.7705 37.3125ZM33.8698 41.6662C33.6486 41.7806 33.4386 41.8537 33.343 41.8012C33.2755 41.7637 33.4386 41.6137 33.4386 41.6137C33.4386 41.6137 34.5805 40.3856 35.0305 39.8306C35.2892 39.5044 35.593 39.1219 35.923 38.6887V38.8125C35.923 40.2787 34.5036 41.2669 33.8717 41.67L33.8698 41.6662ZM40.8898 40.065C40.7267 39.9506 40.7548 39.5662 41.3023 38.3681C41.683 37.5986 42.2148 36.9138 42.8661 36.3544C42.9659 36.6382 43.0179 36.9366 43.0198 37.2375C43.0272 37.8779 42.8225 38.5027 42.4375 39.0145C42.0525 39.5263 41.509 39.8963 40.8917 40.0669L40.8898 40.065Z" fill="#CD6799"/>
</svg>
