<svg width="1360" height="2547" viewBox="0 0 1360 2547" fill="none" xmlns="http://www.w3.org/2000/svg">
<path d="M1262 1.49997C1262 1.49997 1325.3 -0.448359 1347 26.5C1377.66 64.5681 1345.37 109.204 1315 147.5C1211.5 278 1102.5 297.5 910.5 317C609.138 347.607 433 254.5 140.5 410.5C88.1142 438.439 48.5208 460.694 33 518C18.6928 570.825 19.5076 621.135 62.5 655C225 783 379.155 715.421 579 767C766.594 815.417 880.081 827.856 1062 894.5C1196 943.589 1315 1035 1315 1035C1315 1035 1347 1074.89 1347 1121C1347 1167.11 1333 1189.5 1294 1226.5C1255 1263.5 1102.5 1306 1102.5 1306C1102.5 1306 611.408 1365.37 300 1329C231.5 1321 161 1317 119.5 1251.5C95.5683 1213.73 96.6678 1175.45 119.5 1137C143.179 1097.13 178.627 1082.5 225 1082.5C317.5 1082.5 343.997 1113.18 419 1137C669.502 1216.56 821.114 1256.67 1033.5 1411.5C1144.74 1492.6 1263.53 1514.75 1294 1649C1309.65 1717.93 1309.94 1765.23 1280.5 1829.5C1215.44 1971.53 1050.47 1925.6 894.5 1934.5C579 1952.5 370.834 1911.65 165.5 2122C124.132 2164.38 101.126 2189.72 71.5 2241C17.0787 2335.2 1 2510.5 1 2510.5V2547" stroke="black"/>
</svg>
