<svg width="30" height="30" viewBox="0 0 60 60" fill="none" xmlns="http://www.w3.org/2000/svg">
<g clip-path="url(#clip0_2067_560)">
<path d="M30.0002 10C25.8964 10 22.3681 11.1076 19.5986 13.4815C16.8491 15.8382 15.0504 19.2692 14.0526 23.5455C13.8348 24.4788 14.3097 25.4354 15.1848 25.8262C16.0598 26.2169 17.0891 25.932 17.6387 25.1469C18.9052 23.3376 20.1698 22.2504 21.3848 21.6925C22.5615 21.1522 23.8299 21.0427 25.2828 21.4319C26.7489 21.8246 27.8839 22.9748 29.6657 24.9126L29.7233 24.9753C31.0664 26.4362 32.7049 28.2184 34.946 29.6011C37.2714 31.0359 40.1652 32 44.0004 32C48.104 32 51.6324 30.8923 54.402 28.5185C57.1512 26.1617 58.95 22.7308 59.948 18.4544C60.1656 17.5212 59.6908 16.5646 58.8156 16.1738C57.9408 15.783 56.9112 16.0679 56.3616 16.853C55.0952 18.6624 53.8308 19.7495 52.6156 20.3074C51.4388 20.8478 50.1704 20.9572 48.7176 20.5681C47.2516 20.1754 46.1164 19.0252 44.3348 17.0873L44.2772 17.0246C42.934 15.5637 41.2956 13.7815 39.0545 12.3988C36.7291 10.964 33.8353 10 30.0002 10Z" fill="black"/>
<path d="M16.0002 27.9999C11.8964 27.9999 8.36812 29.1076 5.59864 31.4814C2.84908 33.8382 1.05037 37.2691 0.0525461 41.5456C-0.165223 42.4788 0.309665 43.4352 1.18474 43.826C2.05982 44.2168 3.0891 43.932 3.63869 43.1468C4.9052 41.3376 6.16976 40.2504 7.3848 39.6925C8.56152 39.1521 9.82988 39.0427 11.2828 39.4318C12.7489 39.8245 13.8839 40.9748 15.6657 42.9128L15.7233 42.9752C17.0664 44.436 18.705 46.2184 20.946 47.6012C23.2714 49.036 26.1651 50 30.0002 50C34.1041 50 37.6323 48.8924 40.402 46.5184C43.1512 44.1616 44.95 40.7308 45.948 36.4544C46.1656 35.5211 45.6908 34.5645 44.8156 34.1737C43.9408 33.7829 42.9112 34.0679 42.3616 34.853C41.0952 36.6623 39.8307 37.7494 38.6156 38.3073C37.439 38.8477 36.1706 38.9572 34.7177 38.568C33.2516 38.1753 32.1166 37.0251 30.3348 35.0872L30.2772 35.0246C28.934 33.5637 27.2955 31.7815 25.0545 30.3987C22.7291 28.964 19.8353 27.9999 16.0002 27.9999Z" fill="black"/>
</g>
<defs>
<clipPath id="clip0_2067_560">
<rect width="60" height="60" fill="white"/>
</clipPath>
</defs>
</svg>
