<svg width="30" height="30" viewBox="0 0 60 60" fill="none" xmlns="http://www.w3.org/2000/svg">
<g clip-path="url(#clip0_2057_668)">
<path d="M30.7568 5.85632C17.4227 5.85632 6.61328 16.6659 6.61328 30C6.61328 43.3342 17.4227 54.1437 30.7568 54.1437C44.091 54.1437 54.9004 43.3342 54.9004 30C54.9004 16.6659 44.091 5.85632 30.7568 5.85632ZM30.7568 31.9745C29.6665 31.9745 28.7825 31.0907 28.7825 30.0002C28.7825 28.9097 29.6665 28.0258 30.7568 28.0258C31.8473 28.0258 32.7313 28.9097 32.7313 30.0002C32.7313 31.0905 31.8473 31.9745 30.7568 31.9745Z" fill="#1E252B"/>
<path d="M46.3304 44.8704C46.2515 44.8704 46.1724 44.8415 46.1102 44.7834C45.98 44.6618 45.9731 44.4576 46.0947 44.3275C49.7388 40.4283 51.7458 35.3401 51.7458 30C51.7458 29.2699 51.7079 28.5333 51.633 27.8111C51.6146 27.6338 51.7435 27.4754 51.9207 27.457C52.0978 27.4373 52.2565 27.5673 52.2747 27.7446C52.3519 28.4888 52.3911 29.2476 52.3911 30C52.3911 35.5043 50.3225 40.749 46.5662 44.7681C46.5027 44.836 46.4165 44.8704 46.3304 44.8704Z" fill="#004D7A"/>
<path d="M30.7572 51.6336C29.6876 51.6336 28.6137 51.5551 27.5655 51.3999C27.3894 51.3737 27.2676 51.2097 27.2935 51.0334C27.3197 50.857 27.4828 50.7354 27.6599 50.7614C28.677 50.912 29.7191 50.9882 30.757 50.9882C33.9046 50.9882 36.9306 50.3089 39.7508 48.9691C39.9121 48.8928 40.1042 48.9612 40.1807 49.1221C40.2571 49.2831 40.1886 49.4755 40.0277 49.552C37.1205 50.9333 34.0014 51.6336 30.7572 51.6336Z" fill="#004D7A"/>
<path d="M21.3772 49.464C21.3295 49.464 21.2811 49.4535 21.2353 49.4309C15.7332 46.7303 11.6185 41.81 9.94598 35.9318C9.89726 35.7606 9.99663 35.582 10.1679 35.5331C10.3396 35.4846 10.5178 35.5836 10.5666 35.7553C12.1891 41.458 16.1812 46.2312 21.5195 48.8518C21.6795 48.9302 21.7455 49.1236 21.667 49.2835C21.611 49.3977 21.4965 49.464 21.3772 49.464Z" fill="#004D7A"/>
<path d="M9.72847 33.8051C9.57328 33.8051 9.43649 33.693 9.41051 33.5348C9.21984 32.3744 9.12305 31.1852 9.12305 29.9998C9.12305 29.8216 9.26759 29.6772 9.44568 29.6772C9.62378 29.6772 9.76832 29.8216 9.76832 29.9998C9.76832 31.1502 9.8622 32.3042 10.0472 33.4302C10.0761 33.6061 9.95706 33.7719 9.78122 33.8009C9.76348 33.8037 9.74589 33.8051 9.72847 33.8051Z" fill="#004D7A"/>
<path d="M10.2574 24.4767C10.2282 24.4767 10.1985 24.4727 10.169 24.4643C9.99766 24.4154 9.89813 24.237 9.94701 24.0655C11.6199 18.1887 15.7343 13.2693 21.2355 10.5689C21.3954 10.4898 21.5888 10.5561 21.6674 10.7163C21.7459 10.8762 21.6799 11.0694 21.5199 11.148C16.1826 13.7681 12.1908 18.5409 10.5678 24.2423C10.5271 24.3841 10.3979 24.4767 10.2574 24.4767Z" fill="#004D7A"/>
<path d="M45.5623 14.9936C45.4816 14.9936 45.4008 14.9635 45.338 14.903C41.4051 11.1036 36.227 9.01117 30.7572 9.01117C30.5791 9.01117 30.4346 8.86663 30.4346 8.68854C30.4346 8.51045 30.5791 8.36591 30.7572 8.36591C36.3951 8.36591 41.7326 10.5226 45.7863 14.4389C45.9144 14.5627 45.918 14.7668 45.7942 14.8951C45.731 14.9607 45.6466 14.9936 45.5623 14.9936Z" fill="#004D7A"/>
<path d="M41.6255 33.9928C41.5911 33.9928 41.5563 33.9871 41.5219 33.9755C41.3532 33.9183 41.2627 33.7352 41.3199 33.5664C41.7081 32.4211 41.9049 31.2212 41.9049 29.9999C41.9049 28.362 41.5567 26.7848 40.8702 25.3125C40.7948 25.151 40.8647 24.9592 41.0262 24.8838C41.1878 24.8084 41.3796 24.8784 41.4549 25.04C42.1815 26.5983 42.55 28.267 42.5501 29.9999C42.5501 31.2919 42.3419 32.5614 41.931 33.7736C41.8855 33.9081 41.76 33.9928 41.6255 33.9928Z" fill="#004D7A"/>
<path d="M30.7992 41.7502C27.0641 41.7502 23.6351 40.034 21.3917 37.0418C21.2847 36.8992 21.3138 36.6969 21.4562 36.59C21.5988 36.4834 21.8009 36.5124 21.9079 36.6545C24.0284 39.4827 27.2691 41.1049 30.7992 41.1049C32.6647 41.1049 34.5094 40.6336 36.1341 39.742C36.2903 39.6561 36.4865 39.7134 36.5723 39.8696C36.6579 40.0257 36.6008 40.2219 36.4447 40.3076C34.7249 41.2513 32.7728 41.7502 30.7992 41.7502Z" fill="#004D7A"/>
<path d="M20.6964 24.9771C20.6454 24.9771 20.5938 24.9652 20.5455 24.9395C20.3881 24.8561 20.3283 24.6609 20.4117 24.5035C21.5541 22.3488 23.3847 20.5636 25.5667 19.4765C25.7261 19.3972 25.92 19.4619 25.9994 19.6214C26.0789 19.7808 26.0139 19.9745 25.8545 20.054C23.7921 21.0816 22.0616 22.7692 20.9817 24.8056C20.9238 24.9149 20.812 24.9771 20.6964 24.9771Z" fill="#004D7A"/>
<path d="M36.2416 20.2718C36.1897 20.2718 36.1369 20.2592 36.088 20.2328C34.4755 19.3575 32.6468 18.895 30.7996 18.895C30.0462 18.895 29.293 18.9709 28.5611 19.1205C28.3861 19.1568 28.2161 19.0435 28.1804 18.869C28.1448 18.6944 28.2574 18.5239 28.4319 18.4884C29.2064 18.33 30.003 18.2497 30.7997 18.2497C32.7542 18.2497 34.6894 18.7393 36.396 19.6656C36.5526 19.7506 36.6107 19.9464 36.5257 20.1031C36.4671 20.2108 36.3561 20.2718 36.2416 20.2718Z" fill="#004D7A"/>
<path d="M39.1505 22.5215C39.0642 22.5215 38.9782 22.4872 38.9147 22.4191C38.5551 22.0344 38.1647 21.6719 37.7541 21.3415C37.6154 21.2297 37.5933 21.0266 37.7051 20.8877C37.8167 20.749 38.0198 20.727 38.1587 20.8385C38.593 21.1881 39.006 21.5715 39.3862 21.9784C39.5078 22.1086 39.5009 22.3126 39.3707 22.4343C39.3084 22.4927 39.2294 22.5215 39.1505 22.5215Z" fill="#004D7A"/>
<path d="M30.7564 23.0042C26.8929 23.0042 23.7607 26.1367 23.7607 30.0001C23.7607 33.8638 26.8929 36.9959 30.7564 36.9959C34.6201 36.9959 37.7521 33.8638 37.7521 30.0001C37.7521 26.1367 34.6201 23.0042 30.7564 23.0042ZM30.7564 31.9746C29.6661 31.9746 28.7821 31.0907 28.7821 30.0002C28.7821 28.9097 29.6661 28.0259 30.7564 28.0259C31.8469 28.0259 32.7309 28.9097 32.7309 30.0002C32.7309 31.0906 31.8469 31.9746 30.7564 31.9746Z" fill="#FFB819"/>
<path d="M57.3714 16.3792L44.8952 18.598V32.2122C44.3078 32.1031 43.6527 32.0999 42.9611 32.2227C40.4412 32.6708 38.3984 34.6185 38.3984 36.5727C38.3984 38.5269 40.4412 39.7481 42.9611 39.2997C45.4812 38.8515 47.524 36.9038 47.524 34.9496V22.3241L57.3716 20.5727V29.9931C56.7842 29.8842 56.1293 29.8808 55.4376 30.0037C52.9176 30.4522 50.8749 32.3993 50.8749 34.354C50.8749 36.308 52.9176 37.529 55.4376 37.0806C57.9575 36.6328 60.0004 34.6849 60.0004 32.7311V15.9116L57.3714 16.3792Z" fill="#D85C72"/>
<path d="M6.49689 22.8443V36.4585C5.90953 36.3497 5.25442 36.3463 4.5627 36.4692C2.04276 36.9173 0 38.8649 0 40.8191C0 42.7735 2.04276 43.9945 4.5627 43.546C7.08279 43.0979 9.12555 41.1501 9.12555 39.1961V26.5704L13.2267 25.8411V21.6475L6.49689 22.8443Z" fill="#D85C72"/>
</g>
<defs>
<clipPath id="clip0_2057_668">
<rect width="60" height="60" fill="white"/>
</clipPath>
</defs>
</svg>
