<svg width="30" height="30" viewBox="0 0 60 60" fill="none" xmlns="http://www.w3.org/2000/svg">
<path d="M56.0317 11.5237L31.3908 55.5857C30.8819 56.4952 29.575 56.5007 29.0585 55.5954L3.92916 11.5279C3.36666 10.5412 4.21004 9.34631 5.32792 9.546L29.9954 13.9552C30.1528 13.9834 30.3139 13.9831 30.4711 13.9545L54.6226 9.55237C55.7367 9.34931 56.5844 10.5352 56.0317 11.5237Z" fill="url(#paint0_linear_2063_564)"/>
<path d="M41.7462 3.76295L23.5113 7.33595C23.3655 7.36446 23.2334 7.44061 23.1357 7.55242C23.038 7.66422 22.9802 7.80534 22.9715 7.95357L21.8498 26.8982C21.8236 27.3444 22.2333 27.6908 22.6686 27.5903L27.7456 26.4188C28.2207 26.3091 28.6499 26.7276 28.5522 27.2051L27.044 34.5913C26.9423 35.0882 27.409 35.5134 27.8945 35.3661L31.0302 34.4132C31.5164 34.2656 31.9835 34.692 31.8807 35.1894L29.4837 46.7914C29.3337 47.517 30.299 47.9126 30.7015 47.2905L30.9704 46.875L45.8292 17.2215C46.078 16.725 45.6492 16.1589 45.1036 16.2641L39.878 17.2727C39.3867 17.3674 38.969 16.9101 39.1075 16.4295L42.5183 4.60576C42.6571 4.12426 42.2378 3.66657 41.7462 3.76295Z" fill="url(#paint1_linear_2063_564)"/>
<defs>
<linearGradient id="paint0_linear_2063_564" x1="3.31554" y1="7.9711" x2="33.9815" y2="49.6179" gradientUnits="userSpaceOnUse">
<stop stop-color="#41D1FF"/>
<stop offset="1" stop-color="#BD34FE"/>
</linearGradient>
<linearGradient id="paint1_linear_2063_564" x1="28.5788" y1="4.73288" x2="34.1261" y2="42.7869" gradientUnits="userSpaceOnUse">
<stop stop-color="#FFEA83"/>
<stop offset="0.0833" stop-color="#FFDD35"/>
<stop offset="1" stop-color="#FFA800"/>
</linearGradient>
</defs>
</svg>
