<svg width="50" height="30" viewBox="0 0 60 60" fill="none" xmlns="http://www.w3.org/2000/svg">
<path d="M57 27C50.25 27 50.25 33 43.5 33C36.75 33 36.75 27 30 27C23.25 27 23.25 33 16.5 33C9.75 33 9.75 27 3 27" stroke="#EBEBEB" stroke-width="6" stroke-linecap="round" stroke-linejoin="round"/>
<path d="M3 9C9.75 9 9.75 15 16.5 15C23.25 15 23.25 9 30 9C36.75 9 36.78 15 43.53 15C50.28 15 50.25 9 57 9" stroke="#EBEBEB" stroke-width="6" stroke-linecap="round" stroke-linejoin="round"/>
<path d="M57 45C50.25 45 50.25 51 43.5 51C36.75 51 36.75 45 30 45C23.25 45 23.25 51 16.5 51C9.75 51 9.75 45 3 45" stroke="#EBEBEB" stroke-width="6" stroke-linecap="round" stroke-linejoin="round"/>
</svg>
